<svg width="152" height="152" viewBox="0 0 152 152" fill="none" xmlns="http://www.w3.org/2000/svg">
<g clip-path="url(#clip0)">
<path d="M43.0667 86.1333H48.1333V91.2H43.0667V86.1333Z" fill="#5A499E"/>
<path d="M53.1996 86.1333H58.2663V91.1999H53.1996V86.1333Z" fill="#5A499E"/>
<path d="M63.3329 86.1333H68.3996V91.1999H63.3329V86.1333Z" fill="#5A499E"/>
<path d="M43.0667 96.2667H48.1333V101.333H43.0667V96.2667Z" fill="#5A499E"/>
<path d="M53.1996 96.2665H58.2663V101.333H53.1996V96.2665Z" fill="#5A499E"/>
<path d="M63.3329 96.2665H68.3996V101.333H63.3329V96.2665Z" fill="#5A499E"/>
<path d="M73.4661 96.2665H78.5328V101.333H73.4661V96.2665Z" fill="#5A499E"/>
<path d="M83.5994 96.2665H88.6661V101.333H83.5994V96.2665Z" fill="#5A499E"/>
<path d="M43.0667 106.4H48.1333V111.467H43.0667V106.4Z" fill="#5A499E"/>
<path d="M53.1996 106.4H58.2663V111.466H53.1996V106.4Z" fill="#5A499E"/>
<path d="M63.3329 106.4H68.3996V111.466H63.3329V106.4Z" fill="#5A499E"/>
<path d="M73.4661 106.4H78.5328V111.466H73.4661V106.4Z" fill="#5A499E"/>
<path d="M83.5994 106.4H88.6661V111.466H83.5994V106.4Z" fill="#5A499E"/>
<path d="M43.0667 116.533H48.1333V121.6H43.0667V116.533Z" fill="#5A499E"/>
<path d="M53.1996 116.533H58.2663V121.6H53.1996V116.533Z" fill="#5A499E"/>
<path d="M63.3329 116.533H68.3996V121.6H63.3329V116.533Z" fill="#5A499E"/>
<path d="M73.4661 116.533H78.5328V121.6H73.4661V116.533Z" fill="#5A499E"/>
<path d="M83.5994 116.533H88.6661V121.6H83.5994V116.533Z" fill="#5A499E"/>
<path d="M43.0663 126.666H48.133V131.733H43.0663V126.666Z" fill="#5A499E"/>
<path d="M53.1996 126.666H58.2663V131.733H53.1996V126.666Z" fill="#5A499E"/>
<path d="M63.3329 126.666H68.3996V131.733H63.3329V126.666Z" fill="#5A499E"/>
<path d="M73.4661 126.666H78.5328V131.733H73.4661V126.666Z" fill="#5A499E"/>
<path d="M83.5994 126.666H88.6661V131.733H83.5994V126.666Z" fill="#5A499E"/>
<path d="M43.0663 136.8H48.133V141.866H43.0663V136.8Z" fill="#5A499E"/>
<path d="M53.1996 136.8H58.2663V141.866H53.1996V136.8Z" fill="#5A499E"/>
<path d="M63.3329 136.8H68.3996V141.866H63.3329V136.8Z" fill="#5A499E"/>
<path d="M73.4661 136.8H78.5328V141.866H73.4661V136.8Z" fill="#5A499E"/>
<path d="M83.5994 136.8H88.6661V141.866H83.5994V136.8Z" fill="#5A499E"/>
<path d="M149.465 7.60012H131.732V2.53349C131.732 1.13448 130.598 0.000175476 129.199 0.000175476H103.866C102.467 0.000175476 101.333 1.13448 101.333 2.53349V7.60012H2.53332C1.13431 7.60012 7.62939e-06 8.73442 7.62939e-06 10.1334V20.2667C7.62939e-06 21.6669 1.13431 22.8 2.53332 22.8H10.1333V70.933C10.1333 72.3333 11.2676 73.4663 12.6666 73.4663C14.0656 73.4663 15.1999 74.6006 15.1999 75.9996C15.1999 77.3999 14.0656 78.5329 12.6666 78.5329C11.2676 78.5329 10.1333 77.3999 10.1333 75.9996H5.06663C5.07406 77.8538 5.76305 79.6413 7.00497 81.0193L0.507165 89.6805L0.539326 89.7053C0.200397 90.1308 0.0111403 90.6565 7.62939e-06 91.1995V101.333C7.62939e-06 102.006 0.267193 102.649 0.742189 103.124L5.80882 108.191C6.28381 108.666 6.92827 108.933 7.59995 108.933H17.7332C18.4049 108.933 19.0493 108.666 19.5243 108.191L24.591 103.124C25.066 102.649 25.3331 102.006 25.3331 101.333V91.1995C25.322 90.6565 25.1328 90.1308 24.7938 89.7053L24.826 89.6805L18.3282 81.0193C20.0204 79.1391 20.6586 76.5365 20.029 74.0873C19.4006 71.6381 17.5872 69.6663 15.1999 68.8339V22.8H101.333V25.3333C101.333 26.7336 102.467 27.8666 103.866 27.8666H108.932V146.932H98.7992V45.5998H93.7326V55.7331H78.5327V50.6665H73.4661V55.7331H58.2662V53.1998H53.1996V55.7331H37.9997V48.1332H70.9328V43.0665H37.9997V32.9333H32.9331V146.932H28.9154L16.991 135.009C16.0014 134.02 14.3983 134.02 13.4088 135.009L1.48437 146.932H7.62939e-06V151.999H151.999V146.932H150.023C151.806 144.987 152.439 142.248 151.692 139.716C150.946 137.185 148.929 135.228 146.374 134.56C147.662 131.385 146.667 127.742 143.944 125.663C141.221 123.583 137.443 123.583 134.721 125.663C131.997 127.742 131.002 131.385 132.29 134.56C129.736 135.228 127.718 137.185 126.972 139.716C126.225 142.248 126.859 144.987 128.641 146.932H124.132V27.8666H129.199C130.598 27.8666 131.732 26.7336 131.732 25.3333V22.8H149.465C150.865 22.8 151.999 21.6669 151.999 20.2667V10.1334C151.999 8.73442 150.865 7.60012 149.465 7.60012V7.60012ZM13.9332 83.5996L17.7332 88.6662H7.59995L11.3999 83.5996H13.9332ZM20.2665 100.285L16.6843 103.866H8.6489L5.06663 100.285V93.7328H20.2665V100.285ZM138.573 12.6668L131.732 17.2275V12.6668H138.573ZM106.399 5.06681H116.532V15.2001H106.399V5.06681ZM37.9997 13.1739L44.8401 17.7334H31.1593L37.9997 13.1739ZM22.7998 17.2275L15.9594 12.6668H29.6403L22.7998 17.2275ZM46.3591 12.6668H60.04L53.1996 17.2275L46.3591 12.6668ZM68.3995 13.1739L75.2399 17.7334H61.559L68.3995 13.1739ZM76.7589 12.6668H90.4398L83.5993 17.2275L76.7589 12.6668ZM5.06663 12.6668H6.84045L14.4404 17.7334H5.06663V12.6668ZM91.9588 17.7334L99.5587 12.6668H101.333V17.7334H91.9588ZM119.066 138.573L114.506 131.733L119.066 124.893V138.573ZM119.066 77.7734L114.506 70.933L119.066 64.0938V77.7734ZM113.999 79.2937L118.559 86.1329L113.999 92.9733V79.2937ZM113.999 62.5736V48.8939L118.559 55.7331L113.999 62.5736ZM113.999 109.693L118.559 116.533L113.999 123.373V109.693ZM119.066 108.158L114.506 101.333L119.066 94.4936V108.158ZM114.506 40.5332L119.066 33.694V47.3737L114.506 40.5332ZM113.999 32.1738V27.8666H116.866L113.999 32.1738ZM93.7326 60.7997V86.1329H78.5327V60.7997H93.7326ZM73.4661 60.7997V82.5865L67.64 76.8284C67.1674 76.3621 66.5304 76.0986 65.8662 76.0961H58.2662V60.7997H73.4661ZM53.1996 60.7997V65.0228H37.9997V60.7997H53.1996ZM15.1999 140.381L21.7509 146.932H8.6489L15.1999 140.381ZM37.9997 146.932V70.0894H53.1996V78.6393C53.1996 80.0396 54.3339 81.1726 55.7329 81.1726H64.8246L74.2256 90.4685C74.6981 90.9348 75.3352 91.1983 75.9994 91.1995H93.7326V146.932H37.9997ZM113.999 140.093L118.559 146.932H113.999V140.093ZM144.399 144.399C143 144.399 141.866 143.266 141.866 141.866C141.866 140.467 143 139.333 144.399 139.333C145.798 139.333 146.932 140.467 146.932 141.866C146.932 143.266 145.798 144.399 144.399 144.399ZM139.332 129.199C140.731 129.199 141.866 130.334 141.866 131.733C141.866 133.133 140.731 134.266 139.332 134.266C137.933 134.266 136.799 133.133 136.799 131.733C136.799 130.334 137.933 129.199 139.332 129.199ZM134.266 139.333C135.665 139.333 136.799 140.467 136.799 141.866C136.799 143.266 135.665 144.399 134.266 144.399C132.867 144.399 131.732 143.266 131.732 141.866C131.732 140.467 132.867 139.333 134.266 139.333ZM126.666 22.8H106.399V20.2667H119.066C120.465 20.2667 121.599 19.1336 121.599 17.7334V5.06681H126.666V22.8ZM140.092 17.7334L146.932 13.1739V17.7334H140.092Z" fill="#5A499E"/>
</g>
<defs>
<clipPath id="clip0">
<rect width="152" height="152" fill="white"/>
</clipPath>
</defs>
</svg>
