<svg width="58" height="36" viewBox="0 0 58 36" fill="none" xmlns="http://www.w3.org/2000/svg">
<path d="M2.00516 22.6865H6.13516C7.17116 22.6865 8.09049 22.8918 8.89316 23.3025C9.69582 23.7131 10.3165 24.2918 10.7552 25.0385C11.2032 25.7758 11.4272 26.6251 11.4272 27.5865C11.4272 28.5478 11.2032 29.4018 10.7552 30.1485C10.3165 30.8858 9.69582 31.4598 8.89316 31.8705C8.09049 32.2811 7.17116 32.4865 6.13516 32.4865H2.00516V22.6865ZM6.05116 31.2685C6.84449 31.2685 7.53982 31.1145 8.13716 30.8065C8.74382 30.4985 9.21049 30.0691 9.53716 29.5185C9.86382 28.9585 10.0272 28.3145 10.0272 27.5865C10.0272 26.8585 9.86382 26.2191 9.53716 25.6685C9.21049 25.1085 8.74382 24.6745 8.13716 24.3665C7.53982 24.0585 6.84449 23.9045 6.05116 23.9045H3.40516V31.2685H6.05116ZM16.0776 24.9965C17.1042 24.9965 17.8882 25.2485 18.4296 25.7525C18.9802 26.2565 19.2556 27.0078 19.2556 28.0065V32.4865H17.9816V31.5065C17.7576 31.8518 17.4356 32.1178 17.0156 32.3045C16.6049 32.4818 16.1149 32.5705 15.5456 32.5705C14.7149 32.5705 14.0476 32.3698 13.5436 31.9685C13.0489 31.5671 12.8016 31.0398 12.8016 30.3865C12.8016 29.7331 13.0396 29.2105 13.5156 28.8185C13.9916 28.4171 14.7476 28.2165 15.7836 28.2165H17.9116V27.9505C17.9116 27.3718 17.7436 26.9285 17.4076 26.6205C17.0716 26.3125 16.5769 26.1585 15.9236 26.1585C15.4849 26.1585 15.0556 26.2331 14.6356 26.3825C14.2156 26.5225 13.8609 26.7138 13.5716 26.9565L13.0116 25.9485C13.3942 25.6405 13.8516 25.4071 14.3836 25.2485C14.9156 25.0805 15.4802 24.9965 16.0776 24.9965ZM15.7696 31.5345C16.2829 31.5345 16.7262 31.4225 17.0996 31.1985C17.4729 30.9651 17.7436 30.6385 17.9116 30.2185V29.1825H15.8396C14.7009 29.1825 14.1316 29.5651 14.1316 30.3305C14.1316 30.7038 14.2762 30.9978 14.5656 31.2125C14.8549 31.4271 15.2562 31.5345 15.7696 31.5345ZM25.6768 24.9965C26.3954 24.9965 27.0394 25.1551 27.6088 25.4725C28.1781 25.7898 28.6214 26.2331 28.9388 26.8025C29.2654 27.3718 29.4288 28.0298 29.4288 28.7765C29.4288 29.5231 29.2654 30.1858 28.9388 30.7645C28.6214 31.3338 28.1781 31.7771 27.6088 32.0945C27.0394 32.4118 26.3954 32.5705 25.6768 32.5705C25.1448 32.5705 24.6548 32.4678 24.2068 32.2625C23.7681 32.0571 23.3948 31.7585 23.0868 31.3665V35.2025H21.7428V25.0665H23.0308V26.2425C23.3294 25.8318 23.7074 25.5238 24.1647 25.3185C24.6221 25.1038 25.1261 24.9965 25.6768 24.9965ZM25.5648 31.3945C26.0408 31.3945 26.4654 31.2871 26.8388 31.0725C27.2214 30.8485 27.5201 30.5405 27.7348 30.1485C27.9588 29.7471 28.0708 29.2898 28.0708 28.7765C28.0708 28.2631 27.9588 27.8105 27.7348 27.4185C27.5201 27.0171 27.2214 26.7091 26.8388 26.4945C26.4654 26.2798 26.0408 26.1725 25.5648 26.1725C25.0981 26.1725 24.6734 26.2845 24.2908 26.5085C23.9174 26.7231 23.6188 27.0265 23.3948 27.4185C23.1801 27.8105 23.0728 28.2631 23.0728 28.7765C23.0728 29.2898 23.1801 29.7471 23.3948 30.1485C23.6094 30.5405 23.9081 30.8485 24.2908 31.0725C24.6734 31.2871 25.0981 31.3945 25.5648 31.3945ZM33.4137 32.5705C32.8071 32.5705 32.2237 32.4911 31.6637 32.3325C31.1037 32.1645 30.6651 31.9545 30.3477 31.7025L30.9077 30.6385C31.2344 30.8718 31.6311 31.0585 32.0977 31.1985C32.5644 31.3385 33.0357 31.4085 33.5117 31.4085C34.6877 31.4085 35.2757 31.0725 35.2757 30.4005C35.2757 30.1765 35.1964 29.9991 35.0377 29.8685C34.8791 29.7378 34.6784 29.6445 34.4357 29.5885C34.2024 29.5231 33.8664 29.4531 33.4277 29.3785C32.8304 29.2851 32.3404 29.1778 31.9577 29.0565C31.5844 28.9351 31.2624 28.7298 30.9917 28.4405C30.7211 28.1511 30.5857 27.7451 30.5857 27.2225C30.5857 26.5505 30.8657 26.0138 31.4257 25.6125C31.9857 25.2018 32.7371 24.9965 33.6797 24.9965C34.1744 24.9965 34.6691 25.0571 35.1637 25.1785C35.6584 25.2998 36.0644 25.4631 36.3817 25.6685L35.8077 26.7325C35.2011 26.3405 34.4871 26.1445 33.6657 26.1445C33.0964 26.1445 32.6624 26.2378 32.3637 26.4245C32.0651 26.6111 31.9157 26.8585 31.9157 27.1665C31.9157 27.4091 31.9997 27.6005 32.1677 27.7405C32.3357 27.8805 32.5411 27.9831 32.7837 28.0485C33.0357 28.1138 33.3857 28.1885 33.8337 28.2725C34.4311 28.3751 34.9117 28.4871 35.2757 28.6085C35.6491 28.7205 35.9664 28.9165 36.2277 29.1965C36.4891 29.4765 36.6197 29.8685 36.6197 30.3725C36.6197 31.0445 36.3304 31.5811 35.7517 31.9825C35.1824 32.3745 34.4031 32.5705 33.4137 32.5705ZM41.1834 29.0285L39.6434 30.4565V32.4865H38.2994V22.0985H39.6434V28.7625L43.6894 25.0665H45.3134L42.1914 28.1325L45.6214 32.4865H43.9694L41.1834 29.0285ZM46.8306 25.0665H48.1746V32.4865H46.8306V25.0665ZM47.5026 23.6385C47.2413 23.6385 47.022 23.5545 46.8446 23.3865C46.6766 23.2185 46.5926 23.0131 46.5926 22.7705C46.5926 22.5278 46.6766 22.3225 46.8446 22.1545C47.022 21.9771 47.2413 21.8885 47.5026 21.8885C47.764 21.8885 47.9786 21.9725 48.1466 22.1405C48.324 22.2991 48.4126 22.4998 48.4126 22.7425C48.4126 22.9945 48.324 23.2091 48.1466 23.3865C47.9786 23.5545 47.764 23.6385 47.5026 23.6385ZM53.9748 32.5705C53.2188 32.5705 52.5421 32.4071 51.9448 32.0805C51.3568 31.7538 50.8948 31.3058 50.5588 30.7365C50.2228 30.1578 50.0548 29.5045 50.0548 28.7765C50.0548 28.0485 50.2228 27.3998 50.5588 26.8305C50.8948 26.2518 51.3568 25.8038 51.9448 25.4865C52.5421 25.1598 53.2188 24.9965 53.9748 24.9965C54.6468 24.9965 55.2441 25.1318 55.7668 25.4025C56.2988 25.6731 56.7095 26.0651 56.9988 26.5785L55.9768 27.2365C55.7435 26.8818 55.4541 26.6158 55.1088 26.4385C54.7635 26.2611 54.3808 26.1725 53.9608 26.1725C53.4755 26.1725 53.0368 26.2798 52.6448 26.4945C52.2621 26.7091 51.9588 27.0171 51.7348 27.4185C51.5201 27.8105 51.4128 28.2631 51.4128 28.7765C51.4128 29.2991 51.5201 29.7611 51.7348 30.1625C51.9588 30.5545 52.2621 30.8578 52.6448 31.0725C53.0368 31.2871 53.4755 31.3945 53.9608 31.3945C54.3808 31.3945 54.7635 31.3058 55.1088 31.1285C55.4541 30.9511 55.7435 30.6851 55.9768 30.3305L56.9988 30.9745C56.7095 31.4878 56.2988 31.8845 55.7668 32.1645C55.2441 32.4351 54.6468 32.5705 53.9748 32.5705Z" fill="#5A499E"/>
<g clip-path="url(#clip0)">
<path d="M23.0481 13.2324H23.5176V14.0108H23.0481V13.2324Z" fill="#5A499E"/>
<path d="M23.9871 13.2324H24.4566V14.0108H23.9871V13.2324Z" fill="#5A499E"/>
<path d="M24.9261 13.2324H25.3957V14.0108H24.9261V13.2324Z" fill="#5A499E"/>
<path d="M23.0481 14.7892H23.5176V15.5676H23.0481V14.7892Z" fill="#5A499E"/>
<path d="M23.9871 14.7892H24.4566V15.5675H23.9871V14.7892Z" fill="#5A499E"/>
<path d="M24.9261 14.7892H25.3957V15.5675H24.9261V14.7892Z" fill="#5A499E"/>
<path d="M25.8652 14.7892H26.3347V15.5675H25.8652V14.7892Z" fill="#5A499E"/>
<path d="M26.8042 14.7892H27.2738V15.5675H26.8042V14.7892Z" fill="#5A499E"/>
<path d="M23.0481 16.3459H23.5176V17.1243H23.0481V16.3459Z" fill="#5A499E"/>
<path d="M23.9871 16.3459H24.4566V17.1243H23.9871V16.3459Z" fill="#5A499E"/>
<path d="M24.9261 16.3459H25.3957V17.1243H24.9261V16.3459Z" fill="#5A499E"/>
<path d="M25.8652 16.3459H26.3347V17.1243H25.8652V16.3459Z" fill="#5A499E"/>
<path d="M26.8042 16.3459H27.2738V17.1243H26.8042V16.3459Z" fill="#5A499E"/>
<path d="M23.0481 17.9027H23.5176V18.6811H23.0481V17.9027Z" fill="#5A499E"/>
<path d="M23.9871 17.9027H24.4566V18.681H23.9871V17.9027Z" fill="#5A499E"/>
<path d="M24.9261 17.9027H25.3957V18.681H24.9261V17.9027Z" fill="#5A499E"/>
<path d="M25.8652 17.9027H26.3347V18.681H25.8652V17.9027Z" fill="#5A499E"/>
<path d="M26.8042 17.9027H27.2738V18.681H26.8042V17.9027Z" fill="#5A499E"/>
<path d="M23.0481 19.4594H23.5176V20.2378H23.0481V19.4594Z" fill="#5A499E"/>
<path d="M23.9871 19.4594H24.4566V20.2378H23.9871V19.4594Z" fill="#5A499E"/>
<path d="M24.9261 19.4594H25.3957V20.2378H24.9261V19.4594Z" fill="#5A499E"/>
<path d="M25.8652 19.4594H26.3347V20.2378H25.8652V19.4594Z" fill="#5A499E"/>
<path d="M26.8042 19.4594H27.2738V20.2378H26.8042V19.4594Z" fill="#5A499E"/>
<path d="M23.0481 21.0161H23.5176V21.7945H23.0481V21.0161Z" fill="#5A499E"/>
<path d="M23.9871 21.0161H24.4566V21.7945H23.9871V21.0161Z" fill="#5A499E"/>
<path d="M24.9261 21.0161H25.3957V21.7945H24.9261V21.0161Z" fill="#5A499E"/>
<path d="M25.8652 21.0161H26.3347V21.7945H25.8652V21.0161Z" fill="#5A499E"/>
<path d="M26.8042 21.0161H27.2738V21.7945H26.8042V21.0161Z" fill="#5A499E"/>
<path d="M32.908 1.16773H31.2647V0.389362C31.2647 0.174435 31.1596 0.000175476 31.0299 0.000175476H28.6823C28.5527 0.000175476 28.4476 0.174435 28.4476 0.389362V1.16773H19.2919C19.1623 1.16773 19.0572 1.34199 19.0572 1.55692V3.11367C19.0572 3.32878 19.1623 3.50285 19.2919 3.50285H19.9962V10.8974C19.9962 11.1125 20.1013 11.2866 20.231 11.2866C20.3606 11.2866 20.4657 11.4608 20.4657 11.6758C20.4657 11.8909 20.3606 12.065 20.231 12.065C20.1013 12.065 19.9962 11.8909 19.9962 11.6758H19.5267C19.5274 11.9606 19.5912 12.2352 19.7063 12.4469L19.1041 13.7775L19.1071 13.7813C19.0757 13.8467 19.0582 13.9275 19.0572 14.0109V15.5676C19.0572 15.671 19.0819 15.7698 19.1259 15.8428L19.5954 16.6212C19.6395 16.6941 19.6992 16.7352 19.7614 16.7352H20.7005C20.7627 16.7352 20.8224 16.6941 20.8665 16.6212L21.336 15.8428C21.38 15.7698 21.4048 15.671 21.4048 15.5676V14.0109C21.4037 13.9275 21.3862 13.8467 21.3548 13.7813L21.3578 13.7775L20.7556 12.4469C20.9124 12.1581 20.9716 11.7582 20.9132 11.382C20.855 11.0057 20.6869 10.7028 20.4657 10.5749V3.50285H28.4476V3.89204C28.4476 4.10716 28.5527 4.28123 28.6823 4.28123H29.1518V22.573H28.2128V7.00553H27.7433V8.56228H26.3347V7.7839H25.8652V8.56228H24.4566V8.17309H23.9871V8.56228H22.5786V7.39472H25.6304V6.61634H22.5786V5.0596H22.109V22.573H21.7367L20.6317 20.7413C20.54 20.5892 20.3914 20.5892 20.2997 20.7413L19.1947 22.573H19.0572V23.3514H33.1428V22.573H32.9597C33.1249 22.2741 33.1836 21.8533 33.1143 21.4643C33.0452 21.0755 32.8582 20.7749 32.6215 20.6723C32.7409 20.1845 32.6487 19.6248 32.3963 19.3054C32.144 18.9859 31.7939 18.9859 31.5416 19.3054C31.2892 19.6248 31.197 20.1845 31.3164 20.6723C31.0797 20.7749 30.8927 21.0755 30.8236 21.4643C30.7543 21.8533 30.813 22.2741 30.9782 22.573H30.5604V4.28123H31.0299C31.1596 4.28123 31.2647 4.10716 31.2647 3.89204V3.50285H32.908C33.0376 3.50285 33.1428 3.32878 33.1428 3.11367V1.55692C33.1428 1.34199 33.0376 1.16773 32.908 1.16773V1.16773ZM20.3483 12.8433L20.7005 13.6217H19.7614L20.1136 12.8433H20.3483ZM20.9352 15.4067L20.6033 15.9568H19.8586L19.5267 15.4067V14.4001H20.9352V15.4067ZM31.8986 1.94611L31.2647 2.64676V1.94611H31.8986ZM28.9171 0.778548H29.8561V2.33529H28.9171V0.778548ZM22.5786 2.02402L23.2125 2.72448H21.9447L22.5786 2.02402ZM21.17 2.64676L20.5361 1.94611H21.8039L21.17 2.64676ZM23.3532 1.94611H24.621L23.9871 2.64676L23.3532 1.94611ZM25.3957 2.02402L26.0296 2.72448H24.7618L25.3957 2.02402ZM26.1703 1.94611H27.4381L26.8042 2.64676L26.1703 1.94611ZM19.5267 1.94611H19.691L20.3953 2.72448H19.5267V1.94611ZM27.5789 2.72448L28.2832 1.94611H28.4476V2.72448H27.5789ZM30.0909 21.2887L29.6684 20.2379L30.0909 19.1872V21.2887ZM30.0909 11.9483L29.6684 10.8974L30.0909 9.84671V11.9483ZM29.6214 12.1818L30.0439 13.2325L29.6214 14.2834V12.1818ZM29.6214 9.61316V7.51159L30.0439 8.56228L29.6214 9.61316ZM29.6214 16.8521L30.0439 17.9028L29.6214 18.9536V16.8521ZM30.0909 16.6162L29.6684 15.5676L30.0909 14.5169V16.6162ZM29.6684 6.22716L30.0909 5.17647V7.27804L29.6684 6.22716ZM29.6214 4.94292V4.28123H29.8871L29.6214 4.94292ZM27.7433 9.34065V13.2325H26.3347V9.34065H27.7433ZM25.8652 9.34065V12.6877L25.3253 11.8031C25.2815 11.7314 25.2225 11.691 25.1609 11.6906H24.4566V9.34065H25.8652ZM23.9871 9.34065V9.98942H22.5786V9.34065H23.9871ZM20.4657 21.5666L21.0728 22.573H19.8586L20.4657 21.5666ZM22.5786 22.573V10.7678H23.9871V12.0813C23.9871 12.2964 24.0922 12.4705 24.2219 12.4705H25.0644L25.9356 13.8986C25.9794 13.9702 26.0384 14.0107 26.1 14.0109H27.7433V22.573H22.5786ZM29.6214 21.5223L30.0439 22.573H29.6214V21.5223ZM32.4385 22.1838C32.3088 22.1838 32.2037 22.0097 32.2037 21.7946C32.2037 21.5797 32.3088 21.4054 32.4385 21.4054C32.5681 21.4054 32.6732 21.5797 32.6732 21.7946C32.6732 22.0097 32.5681 22.1838 32.4385 22.1838ZM31.969 19.8487C32.0986 19.8487 32.2037 20.0229 32.2037 20.2379C32.2037 20.453 32.0986 20.6271 31.969 20.6271C31.8393 20.6271 31.7342 20.453 31.7342 20.2379C31.7342 20.0229 31.8393 19.8487 31.969 19.8487ZM31.4994 21.4054C31.6291 21.4054 31.7342 21.5797 31.7342 21.7946C31.7342 22.0097 31.6291 22.1838 31.4994 22.1838C31.3698 22.1838 31.2647 22.0097 31.2647 21.7946C31.2647 21.5797 31.3698 21.4054 31.4994 21.4054ZM30.7952 3.50285H28.9171V3.11367H30.0909C30.2205 3.11367 30.3256 2.9396 30.3256 2.72448V0.778548H30.7952V3.50285ZM32.0393 2.72448L32.6732 2.02402V2.72448H32.0393Z" fill="#5A499E"/>
</g>
<defs>
<clipPath id="clip0">
<rect width="14.0857" height="23.3514" fill="white" transform="translate(19.0571)"/>
</clipPath>
</defs>
</svg>
